<mxfile host="app.diagrams.net" agent="Mozilla/5.0 (Macintosh; Intel Mac OS X 10_15_7) AppleWebKit/537.36 (KHTML, like Gecko) Chrome/133.0.0.0 Safari/537.36" version="26.0.14">
  <diagram name="Page-1" id="929967ad-93f9-6ef4-fab6-5d389245f69c">
    <mxGraphModel dx="906" dy="913" grid="1" gridSize="10" guides="1" tooltips="1" connect="1" arrows="1" fold="1" page="1" pageScale="1.5" pageWidth="1169" pageHeight="826" background="none" math="0" shadow="0">
      <root>
        <mxCell id="0" style=";html=1;" />
        <mxCell id="1" style=";html=1;" parent="0" />
        <mxCell id="1672d66443f91eb5-1" value="&lt;p style=&quot;margin: 0px ; margin-top: 4px ; margin-left: 10px ; text-align: left&quot;&gt;&lt;b&gt;Server and DB&lt;/b&gt;&lt;/p&gt;" style="html=1;strokeWidth=1;shape=mxgraph.sysml.package;html=1;overflow=fill;whiteSpace=wrap;fontSize=12;align=center;labelX=207;" parent="1" vertex="1">
          <mxGeometry x="60" y="110" width="1680" height="900" as="geometry" />
        </mxCell>
        <mxCell id="fy4j5EEXsITpbpzP0Zdo-16" value="&lt;p style=&quot;margin:0px;margin-top:4px;margin-left:10px;text-align:left;&quot;&gt;&lt;b&gt;DataBase&lt;/b&gt;&lt;/p&gt;" style="html=1;shape=mxgraph.sysml.package;html=1;overflow=fill;whiteSpace=wrap;" vertex="1" parent="1">
          <mxGeometry x="130" y="180" width="250" height="700" as="geometry" />
        </mxCell>
        <mxCell id="1z70BXOUAb1ZmNSoUYHr-9" style="edgeStyle=orthogonalEdgeStyle;rounded=0;orthogonalLoop=1;jettySize=auto;html=1;endArrow=none;startFill=0;" parent="1" target="1z70BXOUAb1ZmNSoUYHr-8" edge="1">
          <mxGeometry relative="1" as="geometry">
            <mxPoint x="505" y="590" as="sourcePoint" />
          </mxGeometry>
        </mxCell>
        <mxCell id="1z70BXOUAb1ZmNSoUYHr-13" style="edgeStyle=orthogonalEdgeStyle;rounded=0;orthogonalLoop=1;jettySize=auto;html=1;endArrow=none;startFill=0;" parent="1" target="1z70BXOUAb1ZmNSoUYHr-11" edge="1">
          <mxGeometry relative="1" as="geometry">
            <mxPoint x="581.5" y="560" as="sourcePoint" />
          </mxGeometry>
        </mxCell>
        <mxCell id="1z70BXOUAb1ZmNSoUYHr-16" style="edgeStyle=orthogonalEdgeStyle;rounded=0;orthogonalLoop=1;jettySize=auto;html=1;endArrow=none;startFill=0;" parent="1" source="1672d66443f91eb5-10" edge="1">
          <mxGeometry relative="1" as="geometry">
            <Array as="points">
              <mxPoint x="530" y="430" />
            </Array>
            <mxPoint x="640" y="430" as="targetPoint" />
          </mxGeometry>
        </mxCell>
        <mxCell id="rvwP7tbB7jXG2jo1dAHa-2" style="edgeStyle=none;curved=1;rounded=0;orthogonalLoop=1;jettySize=auto;html=1;fontSize=12;startSize=8;endSize=8;endArrow=none;startFill=0;" parent="1" target="rvwP7tbB7jXG2jo1dAHa-1" edge="1">
          <mxGeometry relative="1" as="geometry">
            <mxPoint x="725.5892857142858" y="590" as="sourcePoint" />
          </mxGeometry>
        </mxCell>
        <mxCell id="fy4j5EEXsITpbpzP0Zdo-1" value="University" style="shape=folder;fontStyle=1;tabWidth=70;tabHeight=20;tabPosition=left;html=1;boundedLbl=1;whiteSpace=wrap;" vertex="1" parent="1">
          <mxGeometry x="180" y="570" width="130" height="60" as="geometry" />
        </mxCell>
        <mxCell id="fy4j5EEXsITpbpzP0Zdo-2" value="Users" style="shape=folder;fontStyle=1;tabWidth=70;tabHeight=20;tabPosition=left;html=1;boundedLbl=1;whiteSpace=wrap;" vertex="1" parent="1">
          <mxGeometry x="180" y="310" width="130" height="60" as="geometry" />
        </mxCell>
        <mxCell id="fy4j5EEXsITpbpzP0Zdo-3" value="Role" style="shape=folder;fontStyle=1;tabWidth=70;tabHeight=20;tabPosition=left;html=1;boundedLbl=1;whiteSpace=wrap;" vertex="1" parent="1">
          <mxGeometry x="180" y="490" width="130" height="60" as="geometry" />
        </mxCell>
        <mxCell id="fy4j5EEXsITpbpzP0Zdo-4" value="Samples" style="shape=folder;fontStyle=1;tabWidth=70;tabHeight=20;tabPosition=left;html=1;boundedLbl=1;whiteSpace=wrap;" vertex="1" parent="1">
          <mxGeometry x="180" y="400" width="130" height="60" as="geometry" />
        </mxCell>
        <mxCell id="fy4j5EEXsITpbpzP0Zdo-5" value="Pollution" style="shape=folder;fontStyle=1;tabWidth=70;tabHeight=20;tabPosition=left;html=1;boundedLbl=1;whiteSpace=wrap;" vertex="1" parent="1">
          <mxGeometry x="180" y="220" width="130" height="60" as="geometry" />
        </mxCell>
        <mxCell id="fy4j5EEXsITpbpzP0Zdo-7" value="News" style="shape=folder;fontStyle=1;tabWidth=70;tabHeight=20;tabPosition=left;html=1;boundedLbl=1;whiteSpace=wrap;" vertex="1" parent="1">
          <mxGeometry x="180" y="750" width="130" height="60" as="geometry" />
        </mxCell>
        <mxCell id="fy4j5EEXsITpbpzP0Zdo-8" value="&lt;font style=&quot;color: rgb(0, 0, 0);&quot;&gt;UserComments&lt;/font&gt;" style="shape=folder;fontStyle=1;tabWidth=70;tabHeight=20;tabPosition=left;html=1;boundedLbl=1;whiteSpace=wrap;strokeColor=light-dark(#000000,#FFFFFF);" vertex="1" parent="1">
          <mxGeometry x="180" y="660" width="130" height="60" as="geometry" />
        </mxCell>
        <mxCell id="fy4j5EEXsITpbpzP0Zdo-12" value="&lt;p style=&quot;margin:0px;margin-top:4px;margin-left:10px;text-align:left;&quot;&gt;&lt;b&gt;API&lt;/b&gt;&lt;/p&gt;" style="html=1;shape=mxgraph.sysml.package;html=1;overflow=fill;whiteSpace=wrap;fillColor=none;" vertex="1" parent="1">
          <mxGeometry x="750" y="180" width="220" height="700" as="geometry" />
        </mxCell>
        <mxCell id="fy4j5EEXsITpbpzP0Zdo-15" value="News" style="shape=folder;fontStyle=1;tabWidth=70;tabHeight=20;tabPosition=left;html=1;boundedLbl=1;whiteSpace=wrap;" vertex="1" parent="1">
          <mxGeometry x="790" y="230" width="130" height="60" as="geometry" />
        </mxCell>
        <mxCell id="fy4j5EEXsITpbpzP0Zdo-18" value="&lt;p style=&quot;margin:0px;margin-top:4px;margin-left:10px;text-align:left;&quot;&gt;&lt;b&gt;Services&lt;/b&gt;&lt;/p&gt;" style="html=1;shape=mxgraph.sysml.package;html=1;overflow=fill;whiteSpace=wrap;fillColor=none;" vertex="1" parent="1">
          <mxGeometry x="440" y="180" width="220" height="810" as="geometry" />
        </mxCell>
        <mxCell id="fy4j5EEXsITpbpzP0Zdo-19" value="News" style="shape=folder;fontStyle=1;tabWidth=70;tabHeight=20;tabPosition=left;html=1;boundedLbl=1;whiteSpace=wrap;" vertex="1" parent="1">
          <mxGeometry x="485" y="750" width="130" height="60" as="geometry" />
        </mxCell>
        <mxCell id="fy4j5EEXsITpbpzP0Zdo-20" value="Generate_Excel" style="shape=folder;fontStyle=1;tabWidth=70;tabHeight=20;tabPosition=left;html=1;boundedLbl=1;whiteSpace=wrap;" vertex="1" parent="1">
          <mxGeometry x="490" y="570" width="130" height="60" as="geometry" />
        </mxCell>
        <mxCell id="fy4j5EEXsITpbpzP0Zdo-22" value="Pollution" style="shape=folder;fontStyle=1;tabWidth=70;tabHeight=20;tabPosition=left;html=1;boundedLbl=1;whiteSpace=wrap;" vertex="1" parent="1">
          <mxGeometry x="485" y="220" width="130" height="60" as="geometry" />
        </mxCell>
        <mxCell id="fy4j5EEXsITpbpzP0Zdo-23" value="Users" style="shape=folder;fontStyle=1;tabWidth=70;tabHeight=20;tabPosition=left;html=1;boundedLbl=1;whiteSpace=wrap;" vertex="1" parent="1">
          <mxGeometry x="485" y="310" width="130" height="60" as="geometry" />
        </mxCell>
        <mxCell id="fy4j5EEXsITpbpzP0Zdo-24" value="Samples" style="shape=folder;fontStyle=1;tabWidth=70;tabHeight=20;tabPosition=left;html=1;boundedLbl=1;whiteSpace=wrap;" vertex="1" parent="1">
          <mxGeometry x="485" y="400" width="130" height="60" as="geometry" />
        </mxCell>
      </root>
    </mxGraphModel>
  </diagram>
</mxfile>
